HIERARCHY
ROOT Hips
{
	OFFSET 0.000000 100.481300 0.000000
	CHANNELS 6 Xposition Yposition Zposition Xrotation Yrotation Zrotation
	JOINT Spine
	{
		OFFSET -0.279200 12.230698 -2.892100
		CHANNELS 3 Xrotation Yrotation Zrotation
		JOINT Spine1
		{
			OFFSET -0.325700 14.269203 -3.374200
			CHANNELS 3 Xrotation Yrotation Zrotation
			JOINT Spine2
			{
				OFFSET -0.372300 16.307602 -0.352600
				CHANNELS 3 Xrotation Yrotation Zrotation
				JOINT Neck
				{
					OFFSET -0.418800 17.814194 8.416900
					CHANNELS 3 Xrotation Yrotation Zrotation
					JOINT Head
					{
						OFFSET 0.000000 7.031097 3.806800
						CHANNELS 3 Xrotation Yrotation Zrotation
						JOINT HeadTop_End
						{
							OFFSET 0.000000 24.646606 12.978600
							CHANNELS 3 Xrotation Yrotation Zrotation
							End Site
							{
								OFFSET 0.000000 27.854965 0.000000
							}
						}
					}
				}
				JOINT LeftShoulder
				{
					OFFSET 16.952999 14.495407 -7.737500
					CHANNELS 3 Xrotation Yrotation Zrotation
					JOINT LeftArm
					{
						OFFSET 9.308998 -2.777710 0.208600
						CHANNELS 3 Xrotation Yrotation Zrotation
						JOINT LeftForeArm
						{
							OFFSET 29.972298 0.000000 0.000000
							CHANNELS 3 Xrotation Yrotation Zrotation
							JOINT LeftHand
							{
								OFFSET 26.026505 0.000000 0.000000
								CHANNELS 3 Xrotation Yrotation Zrotation
								JOINT LeftHandThumb1
								{
									OFFSET 12.240501 -7.147949 9.207150
									CHANNELS 3 Xrotation Yrotation Zrotation
									JOINT LeftHandThumb2
									{
										OFFSET 4.138618 -2.389435 2.389433
										CHANNELS 3 Xrotation Yrotation Zrotation
										JOINT LeftHandThumb3
										{
											OFFSET 2.726913 -1.574387 1.574386
											CHANNELS 3 Xrotation Yrotation Zrotation
											JOINT LeftHandThumb4
											{
												OFFSET 3.941010 -2.275345 2.275342
												CHANNELS 3 Xrotation Yrotation Zrotation
												End Site
												{
													OFFSET -0.005798 5.087799 0.009903
												}
											}
										}
									}
								}
								JOINT LeftHandIndex1
								{
									OFFSET 24.424698 -1.985611 5.953459
									CHANNELS 3 Xrotation Yrotation Zrotation
									JOINT LeftHandIndex2
									{
										OFFSET 6.426697 0.000000 0.000000
										CHANNELS 3 Xrotation Yrotation Zrotation
										JOINT LeftHandIndex3
										{
											OFFSET 5.337898 0.000000 0.000000
											CHANNELS 3 Xrotation Yrotation Zrotation
											JOINT LeftHandIndex4
											{
												OFFSET 4.409401 0.000000 0.000000
												CHANNELS 3 Xrotation Yrotation Zrotation
												End Site
												{
													OFFSET 0.000000 4.409363 0.014373
												}
											}
										}
									}
								}
								JOINT LeftHandMiddle1
								{
									OFFSET 23.810104 0.000000 0.000000
									CHANNELS 3 Xrotation Yrotation Zrotation
									JOINT LeftHandMiddle2
									{
										OFFSET 7.176498 0.000000 0.000000
										CHANNELS 3 Xrotation Yrotation Zrotation
										JOINT LeftHandMiddle3
										{
											OFFSET 6.774902 0.000000 0.000000
											CHANNELS 3 Xrotation Yrotation Zrotation
											JOINT LeftHandMiddle4
											{
												OFFSET 5.403328 0.000000 0.000000
												CHANNELS 3 Xrotation Yrotation Zrotation
												End Site
												{
													OFFSET -0.027702 5.403244 0.017414
												}
											}
										}
									}
								}
								JOINT LeftHandRing1
								{
									OFFSET 22.908401 -0.839279 -6.020567
									CHANNELS 3 Xrotation Yrotation Zrotation
									JOINT LeftHandRing2
									{
										OFFSET 6.337502 0.000000 0.000000
										CHANNELS 3 Xrotation Yrotation Zrotation
										JOINT LeftHandRing3
										{
											OFFSET 5.779297 0.000000 0.000000
											CHANNELS 3 Xrotation Yrotation Zrotation
											JOINT LeftHandRing4
											{
												OFFSET 4.965698 0.000000 0.000000
												CHANNELS 3 Xrotation Yrotation Zrotation
												End Site
												{
													OFFSET 0.000000 4.965668 0.016186
												}
											}
										}
									}
								}
								JOINT LeftHandPinky1
								{
									OFFSET 20.037003 -1.530319 -10.950146
									CHANNELS 3 Xrotation Yrotation Zrotation
									JOINT LeftHandPinky2
									{
										OFFSET 5.254700 0.000000 0.000000
										CHANNELS 3 Xrotation Yrotation Zrotation
										JOINT LeftHandPinky3
										{
											OFFSET 4.810204 0.000000 0.000000
											CHANNELS 3 Xrotation Yrotation Zrotation
											JOINT LeftHandPinky4
											{
												OFFSET 3.647202 0.000000 0.000000
												CHANNELS 3 Xrotation Yrotation Zrotation
												End Site
												{
													OFFSET 0.000000 3.647186 0.011889
												}
											}
										}
									}
								}
							}
						}
					}
				}
				JOINT RightShoulder
				{
					OFFSET -15.141001 14.495407 -7.737500
					CHANNELS 3 Xrotation Yrotation Zrotation
					JOINT RightArm
					{
						OFFSET -9.308998 -2.777710 0.208500
						CHANNELS 3 Xrotation Yrotation Zrotation
						JOINT RightForeArm
						{
							OFFSET -29.972300 0.000000 0.000000
							CHANNELS 3 Xrotation Yrotation Zrotation
							JOINT RightHand
							{
								OFFSET -26.026505 0.000000 0.000000
								CHANNELS 3 Xrotation Yrotation Zrotation
								JOINT RightHandThumb1
								{
									OFFSET -12.240601 -7.148026 9.207092
									CHANNELS 3 Xrotation Yrotation Zrotation
									JOINT RightHandThumb2
									{
										OFFSET -4.138618 -2.389435 2.389433
										CHANNELS 3 Xrotation Yrotation Zrotation
										JOINT RightHandThumb3
										{
											OFFSET -2.726974 -1.574417 1.574421
											CHANNELS 3 Xrotation Yrotation Zrotation
											JOINT RightHandThumb4
											{
												OFFSET -3.941010 -2.275345 2.275343
												CHANNELS 3 Xrotation Yrotation Zrotation
												End Site
												{
													OFFSET 0.005814 5.087799 0.009927
												}
											}
										}
									}
								}
								JOINT RightHandIndex1
								{
									OFFSET -24.424698 -1.985657 5.953444
									CHANNELS 3 Xrotation Yrotation Zrotation
									JOINT RightHandIndex2
									{
										OFFSET -6.426697 0.000000 0.000000
										CHANNELS 3 Xrotation Yrotation Zrotation
										JOINT RightHandIndex3
										{
											OFFSET -5.337898 0.000000 0.000000
											CHANNELS 3 Xrotation Yrotation Zrotation
											JOINT RightHandIndex4
											{
												OFFSET -4.409401 0.000000 0.000000
												CHANNELS 3 Xrotation Yrotation Zrotation
												End Site
												{
													OFFSET 0.000000 4.409363 0.014408
												}
											}
										}
									}
								}
								JOINT RightHandMiddle1
								{
									OFFSET -23.810097 0.000000 0.000000
									CHANNELS 3 Xrotation Yrotation Zrotation
									JOINT RightHandMiddle2
									{
										OFFSET -7.176498 0.000000 0.000000
										CHANNELS 3 Xrotation Yrotation Zrotation
										JOINT RightHandMiddle3
										{
											OFFSET -6.774902 0.000000 0.000000
											CHANNELS 3 Xrotation Yrotation Zrotation
											JOINT RightHandMiddle4
											{
												OFFSET -5.403328 0.000000 0.000000
												CHANNELS 3 Xrotation Yrotation Zrotation
												End Site
												{
													OFFSET 0.027702 5.403244 0.017457
												}
											}
										}
									}
								}
								JOINT RightHandRing1
								{
									OFFSET -22.908302 -0.839325 -6.020576
									CHANNELS 3 Xrotation Yrotation Zrotation
									JOINT RightHandRing2
									{
										OFFSET -6.337502 0.000000 0.000000
										CHANNELS 3 Xrotation Yrotation Zrotation
										JOINT RightHandRing3
										{
											OFFSET -5.779297 0.000000 0.000000
											CHANNELS 3 Xrotation Yrotation Zrotation
											JOINT RightHandRing4
											{
												OFFSET -4.965698 0.000000 0.000000
												CHANNELS 3 Xrotation Yrotation Zrotation
												End Site
												{
													OFFSET 0.000000 4.965668 0.016226
												}
											}
										}
									}
								}
								JOINT RightHandPinky1
								{
									OFFSET -20.037003 -1.530334 -10.950259
									CHANNELS 3 Xrotation Yrotation Zrotation
									JOINT RightHandPinky2
									{
										OFFSET -5.254700 0.000000 0.000000
										CHANNELS 3 Xrotation Yrotation Zrotation
										JOINT RightHandPinky3
										{
											OFFSET -4.810204 0.000000 0.000000
											CHANNELS 3 Xrotation Yrotation Zrotation
											JOINT RightHandPinky4
											{
												OFFSET -3.647202 0.000000 0.000000
												CHANNELS 3 Xrotation Yrotation Zrotation
												End Site
												{
													OFFSET 0.000000 3.647186 0.011917
												}
											}
										}
									}
								}
							}
						}
					}
				}
			}
		}
	}
	JOINT LeftUpLeg
	{
		OFFSET 15.427100 -6.655098 0.678600
		CHANNELS 3 Xrotation Yrotation Zrotation
		JOINT LeftLeg
		{
			OFFSET 4.081073 -39.591068 13.024000
			CHANNELS 3 Xrotation Yrotation Zrotation
			JOINT LeftFoot
			{
				OFFSET -4.081074 -37.707932 -15.979700
				CHANNELS 3 Xrotation Yrotation Zrotation
				JOINT LeftToeBase
				{
					OFFSET 5.346399 -15.068900 20.645000
					CHANNELS 3 Xrotation Yrotation Zrotation
					JOINT LeftToe_End
					{
						OFFSET 2.754700 0.931300 11.300900
						CHANNELS 3 Xrotation Yrotation Zrotation
						End Site
						{
							OFFSET 0.000000 11.669021 0.000000
						}
					}
				}
			}
		}
	}
	JOINT RightUpLeg
	{
		OFFSET -15.569500 -6.655098 0.678600
		CHANNELS 3 Xrotation Yrotation Zrotation
		JOINT RightLeg
		{
			OFFSET -4.081825 -39.591045 13.023800
			CHANNELS 3 Xrotation Yrotation Zrotation
			JOINT RightFoot
			{
				OFFSET 4.081824 -37.707954 -15.979600
				CHANNELS 3 Xrotation Yrotation Zrotation
				JOINT RightToeBase
				{
					OFFSET -5.346400 -15.068900 20.645000
					CHANNELS 3 Xrotation Yrotation Zrotation
					JOINT RightToe_End
					{
						OFFSET -2.754700 0.931300 11.300900
						CHANNELS 3 Xrotation Yrotation Zrotation
						End Site
						{
							OFFSET 0.000000 11.669021 0.000000
						}
					}
				}
			}
		}
	}
}
MOTION
Frames: 4
Frame Time: 0.033333
54.192505 73.103867 -22.201746 62.939298 -76.930142 59.394977 33.516899 3.219971 -4.293827 -1.107217 0.674229 0.087102 -1.110384 0.673317 0.033227 4.991466 0.487449 -0.983837 5.867450 1.377915 -0.516242 0.000000 -0.000000 0.000002 1.120116 -8.435483 2.385534 -50.088741 -36.777099 -32.244452 -0.000006 -31.730238 -0.000008 18.245515 -8.309207 40.722950 -1.509814 -5.011688 -5.804067 9.869003 26.563074 3.628756 0.633891 4.235844 2.847374 0.000002 0.000002 0.000003 0.287526 -2.715372 7.071108 0.146761 1.416864 -11.826854 0.006897 0.308775 -2.559450 -0.000001 -0.000001 -0.000000 5.502230 7.186477 -99.066040 0.000209 0.052231 -0.432777 0.001355 -0.136870 1.134207 -0.000002 0.000001 -0.000001 6.435701 6.897794 -91.738695 0.854145 3.326616 -28.793233 0.022354 0.555500 -4.608202 0.000002 -0.000000 0.000002 5.071251 6.851865 -88.989613 -0.018068 -4.051182 -0.536613 0.337059 2.131863 -17.966536 0.000003 0.000000 0.000001 2.182685 10.369630 -16.158240 -41.847982 41.565243 30.443465 0.000002 31.694045 0.000002 -4.136215 -4.968775 -28.533271 -4.585998 23.731993 12.100891 4.695881 -8.746254 -0.231060 -1.994372 1.288954 -2.437877 -0.000000 0.000001 0.000001 4.560735 14.734327 -17.900990 0.002653 -0.192588 1.580434 0.034496 -0.693175 5.697639 0.000001 -0.000000 0.000000 2.492203 7.703061 -20.985005 0.092441 -1.132331 9.333929 -3.479764 -1.430863 7.726659 0.000001 0.000001 -0.000000 -1.138933 -3.894552 -13.918604 0.090642 -1.121334 9.242457 3.840895 -0.177364 3.264013 -0.000000 -0.000000 -0.000000 -3.129273 -23.020304 -9.303351 0.659209 -2.959963 25.105617 0.121067 -1.294498 10.685831 -0.000000 -0.000001 0.000002 -60.967491 5.143118 32.111130 55.502199 -10.618713 -6.159460 -7.829043 -4.774725 -7.036816 0.000019 -0.000009 0.000003 -0.000000 -0.000002 -0.000000 -58.494396 -12.702239 -20.322902 58.909200 6.413439 -0.826628 -12.953013 8.017719 6.972422 -1.119528 -0.000011 -0.000000 0.000000 -0.000000 -0.000000 
53.779335 74.156540 -22.807720 56.528746 -76.847695 53.852473 31.969930 3.622990 -3.761649 -0.886861 0.739161 -0.232755 -0.886652 0.719955 -0.286968 4.667807 0.300604 -0.772325 7.486041 0.530513 -0.053567 0.000003 0.000000 -0.000001 0.951571 -6.471197 3.834906 -53.396667 -37.377879 -37.668456 0.000000 -29.531518 -0.000001 18.259075 -7.949611 40.667353 -1.611311 -5.197333 -5.773069 9.918866 26.723306 3.646013 0.642688 4.255478 2.849729 0.000000 -0.000001 0.000000 0.250606 -2.555447 6.526565 0.133341 1.351205 -11.271225 0.006786 0.306185 -2.538035 -0.000000 0.000000 -0.000002 5.749030 7.174656 -99.746047 0.000006 -0.003241 -0.000005 0.004751 -0.256157 2.123137 -0.000000 -0.000001 0.000001 6.325740 6.906552 -92.138282 0.813501 3.251680 -28.084802 0.019526 0.519291 -4.307196 -0.000001 -0.000000 -0.000000 5.375133 6.862183 -89.200051 -0.018100 -4.055628 -0.499702 0.324229 2.091933 -17.618558 0.000000 -0.000001 -0.000000 2.115672 10.154743 -15.819247 -29.985688 45.207509 21.524791 0.000001 30.065424 -0.000001 -10.498110 -3.048679 -29.500871 -3.625210 22.035363 11.280777 3.951591 -6.490762 0.244162 -2.109655 1.509190 -2.445951 -0.000000 -0.000000 0.000002 3.983002 13.471532 -17.236988 0.002600 -0.190472 1.563148 0.031111 -0.658405 5.410894 -0.000001 -0.000000 -0.000000 2.070931 6.710791 -20.627508 0.092472 -1.132524 9.335539 -2.826936 -1.345156 7.759477 0.000000 0.000000 -0.000000 -1.332905 -4.835914 -13.704839 0.090793 -1.122263 9.250178 4.342874 -0.154328 3.388697 0.000000 0.000000 -0.000000 -3.497799 -23.439930 -10.091148 0.726894 -3.100124 26.386102 0.167960 -1.522089 12.593804 -0.000001 0.000001 0.000000 -58.965112 6.328494 30.936406 53.055779 -10.701633 -5.960561 -6.960803 -5.323704 -7.314234 -0.000003 0.000010 0.000003 -0.000000 -0.000000 -0.000000 -56.381299 -12.696141 -20.638849 58.061123 6.423831 -0.806779 -13.513195 7.099545 6.781674 -1.365942 0.000003 -0.000007 0.000000 -0.000000 -0.000000 
53.271927 75.231224 -23.350130 48.799844 -76.958180 46.805169 30.316430 4.148133 -3.171885 -0.481814 0.798789 -0.410210 -0.478722 0.771874 -0.461410 4.585553 0.115782 -0.839631 9.564008 -0.581891 0.267022 0.000002 0.000001 -0.000000 0.760496 -4.769927 5.085817 -55.552227 -37.611058 -41.895076 0.000002 -28.287901 0.000002 18.224504 -7.521660 40.737779 -1.855334 -5.672045 -5.758867 10.055372 27.159248 3.690679 0.674417 4.326953 2.858790 -0.000001 -0.000000 -0.000001 0.189731 -2.328489 5.311858 0.117193 1.267519 -10.564558 0.006623 0.302516 -2.507578 0.000000 0.000000 0.000000 5.875905 7.163547 -100.016407 0.000004 -0.009129 0.000018 0.008338 -0.339296 2.812679 -0.000002 -0.000001 0.000002 6.172222 6.913050 -92.188129 0.798308 3.223109 -27.815817 0.018530 0.505851 -4.195522 0.000004 -0.000000 0.000001 5.585469 6.867269 -89.305666 -0.018122 -4.057373 -0.485238 0.310865 2.049384 -17.248482 -0.000000 -0.000001 0.000000 2.054667 9.971200 -15.524538 -14.948031 47.184453 9.580501 0.000000 29.082474 0.000002 -16.727050 -0.820767 -30.154653 -2.557423 19.996928 10.322983 3.082290 -3.958665 0.788480 -2.272029 1.818971 -2.458466 0.000000 0.000001 -0.000001 3.414370 12.075523 -16.667270 0.002543 -0.188444 1.546530 0.027962 -0.624245 5.129347 0.000000 -0.000000 -0.000001 1.632617 5.606152 -20.422614 0.092601 -1.133324 9.342208 -2.114408 -1.265205 7.881658 -0.000001 -0.000000 -0.000000 -1.559433 -5.849589 -13.683736 0.091007 -1.123576 9.261107 4.921096 -0.126907 3.582773 0.000000 0.000000 0.000000 -3.877625 -24.045978 -10.825413 0.782849 -3.210265 27.402593 0.222955 -1.750048 14.519618 0.000002 0.000001 -0.000001 -56.085583 6.746368 29.858981 50.553020 -10.644880 -6.197647 -6.234757 -5.686612 -7.655124 -0.000047 -0.000031 0.000007 0.000000 0.000000 0.000000 -53.352896 -12.625519 -20.778491 56.978090 6.427091 -0.541820 -14.191892 5.995579 6.660908 -1.530678 -0.000019 0.000002 -0.000000 0.000000 0.000000 
52.699169 76.284042 -23.751961 40.521043 -77.056903 38.984678 28.521716 4.669618 -2.505509 0.013166 0.844936 -0.506651 0.018689 0.815790 -0.552419 4.886390 -0.050161 -0.976539 11.730534 -1.708832 0.815265 0.000000 -0.000000 0.000000 0.553271 -3.173064 5.382911 -55.272087 -38.820937 -43.516242 -0.000005 -28.707251 -0.000008 18.018247 -7.044500 40.931285 -2.199528 -6.371111 -5.811703 10.269650 27.843160 3.758899 0.732280 4.457845 2.875766 -0.000001 0.000000 -0.000002 0.111412 -2.011972 3.445962 0.092939 1.129765 -9.405006 0.006412 0.297766 -2.468219 0.000001 -0.000000 -0.000001 5.942173 7.146311 -99.868431 -0.000009 0.001208 -0.009994 0.010407 -0.379169 3.143553 -0.000002 0.000000 0.000000 6.044990 6.908969 -91.707680 0.818964 3.261890 -28.181022 0.019953 0.524927 -4.354089 0.000000 0.000001 0.000001 5.614506 6.865170 -89.186240 -0.018115 -4.057023 -0.488135 0.306321 2.034705 -17.121046 0.000002 -0.000001 -0.000000 1.961844 9.783199 -14.695038 0.840586 46.618818 -3.499754 0.000003 28.953326 -0.000002 -22.066897 1.370908 -30.472472 -1.633325 18.056215 9.420555 2.259103 -1.657485 1.295372 -2.447457 2.154071 -2.472394 -0.000001 0.000000 -0.000000 2.933880 10.797635 -16.216592 0.002487 -0.186360 1.529430 0.025022 -0.590584 4.852116 -0.000000 -0.000002 -0.000001 1.241048 4.583323 -20.329546 0.092736 -1.134131 9.348891 -1.465575 -1.192764 8.010910 -0.000000 -0.000002 0.000000 -1.786129 -6.769080 -13.825160 0.091256 -1.125115 9.273895 5.476783 -0.098193 3.819615 0.000000 -0.000000 0.000000 -4.193343 -24.764876 -11.349156 0.818336 -3.277709 28.029722 0.276490 -1.944957 16.179989 0.000001 0.000000 -0.000000 -52.996401 6.828068 28.745305 48.402463 -10.277857 -6.127277 -5.768846 -5.945067 -8.159332 0.000009 0.000009 0.000005 0.000000 0.000002 -0.000000 -49.791017 -12.677962 -20.615673 55.651306 6.487563 -0.302667 -14.992253 4.695872 6.628828 -1.228955 -0.000013 -0.000008 0.000000 -0.000000 0.000000 
